<svg width="2516" height="1036" viewBox="0 0 2516 1036" fill="none" xmlns="http://www.w3.org/2000/svg">
<g clip-path="url(#clip0_6_17)">
<path d="M196.506 239.863C207.084 200.363 229.493 163.78 263.707 130.059C297.894 96.3652 341.95 68.8868 395.929 47.7055C449.881 26.5243 511.52 15.92 580.875 15.92C656.01 15.92 708.762 20.0363 739.105 28.2144C769.448 36.4198 786.078 40.9995 788.968 41.9536C788.968 137.31 778.145 228.85 756.444 316.492C734.771 404.161 685.862 447.968 609.773 447.968C594.343 447.968 578.94 446.06 563.537 442.189C507.649 426.787 447.427 419.072 382.897 419.072C301.002 419.072 240.807 432.076 202.285 458.082V481.199C215.753 470.622 238.408 461.68 270.196 454.456C301.983 447.232 337.615 443.607 377.118 443.607C463.812 443.607 549.797 461.435 635.045 497.064C720.294 532.721 792.294 594.847 851.071 683.47C909.821 772.093 939.21 889.612 939.21 1036.03H612.636C582.757 1036.03 559.884 1029.51 543.99 1016.51C528.096 1003.51 517.273 986.659 511.466 965.941C505.686 945.251 499.907 915.619 494.127 877.073C489.302 843.352 484.013 813.992 478.233 788.94C472.454 763.915 464.248 739.326 453.67 715.256C432.46 665.178 400.427 626.169 357.571 598.227C314.687 570.285 262.917 556.819 202.231 557.773V580.89C234.019 578.981 266.542 584.515 299.775 597.491C333.008 610.494 362.151 630.721 387.205 658.172C412.232 685.624 429.57 718.636 439.221 757.155C444.019 775.473 446.446 797.145 446.446 822.17C446.446 881.898 428.398 932.493 392.248 973.874C356.126 1015.31 308.199 1036 248.468 1036H0V23.1168H105.477C117.037 49.1231 132.44 85.4883 151.714 132.212C170.961 178.937 185.901 214.811 196.506 239.863Z" fill="white"/>
<path d="M2300.68 472.475H2320.91C2320.91 430.086 2312 396.392 2294.17 371.34C2276.34 346.315 2250.08 318.864 2215.41 288.986C2183.62 262.026 2160.26 238.418 2145.32 218.191C2130.38 197.964 2122.91 171.958 2122.91 140.172C2122.91 106.451 2133.48 78.5369 2154.69 56.3743C2175.88 34.2389 2206.22 23.144 2245.72 23.144H2515.94V1034.56H2290.51C2236.56 1034.56 2191.52 1017.46 2155.4 983.251C2119.28 949.067 2101.21 907.386 2101.21 858.263C2101.21 821.68 2112.03 784.824 2133.73 747.722C2155.4 710.648 2188.85 675.728 2234.16 642.961C2260.17 624.67 2273.18 604.442 2273.18 582.28C2273.18 572.657 2269.79 564.233 2263.06 556.982C2256.3 549.758 2248.12 546.133 2238.5 546.133C2227.89 546.133 2217.78 550.958 2208.15 560.581C2198.5 570.231 2190.82 585.142 2185.04 605.369C2174.43 648.713 2151.31 685.324 2115.68 715.174C2080.02 745.051 2041.5 759.962 2000.09 759.962C1973.1 759.962 1945.65 752.52 1917.73 737.582C1889.79 722.67 1866.42 701.462 1847.64 674.011C1828.86 646.56 1819.48 615.483 1819.48 580.808H1799.25C1798.27 610.685 1803.34 636.691 1814.43 658.827C1825.5 680.989 1839.22 699.526 1855.63 714.465C1871.98 729.404 1893.69 746.496 1920.65 765.769C1956.28 791.775 1983.27 815.382 2001.56 836.564C2019.85 857.772 2029.01 885.223 2029.01 918.917C2029.01 950.703 2019.12 977.936 1999.38 1000.56C1979.62 1023.21 1949.52 1034.53 1909.06 1034.53H1617.17V23.1167H1870.05C1897.97 23.1167 1924 31.5674 1948.07 48.4142C1972.15 65.2884 1991.42 87.6691 2005.87 115.611C2020.32 143.553 2027.54 173.893 2027.54 206.633C2027.54 243.244 2017.89 279.118 1998.64 314.284C1979.37 349.45 1949.52 381.48 1909.06 410.376C1882.07 430.603 1868.6 450.831 1868.6 471.058C1868.6 480.708 1871.96 488.886 1878.72 495.619C1885.45 502.38 1893.17 505.733 1901.84 505.733C1911.46 505.733 1920.62 501.644 1929.29 493.466C1937.96 485.288 1945.18 473.021 1950.96 456.61C1966.37 408.441 1990.71 369.922 2023.94 341.026C2057.18 312.13 2092.07 297.682 2128.71 297.682C2159.52 297.682 2188.17 305.888 2214.7 322.244C2241.17 338.627 2262.13 360.299 2277.56 387.26C2292.97 414.247 2300.68 442.653 2300.68 472.503V472.475Z" fill="white"/>
<path d="M1483.23 21.6719L1439.88 105.47C1428.32 77.5555 1403.97 52.994 1366.9 31.7855C1329.79 10.6043 1279.47 0 1215.89 0C1113.77 0 1016.22 34.6751 923.288 104.025C879.641 136.601 840.029 172.694 804.343 212.276C799 249.895 791.884 286.86 782.942 322.953C757.698 425.07 700.092 461.68 646.222 471.848C646.195 471.93 646.168 472.012 646.141 472.094C735.833 509.713 812.44 575.737 873.862 668.341C933.539 758.381 964.672 877.509 966.471 1022.59C1011.78 1031.01 1060.74 1034.99 1113.33 1034.5C1146.07 1034.5 1169.68 1025.61 1184.13 1007.76C1198.58 989.957 1207.01 969.24 1209.43 945.632C1211.83 922.052 1213.03 886.177 1213.03 837.981C1213.03 799.462 1215.67 767.677 1220.99 742.625C1226.28 717.6 1238.55 697.373 1257.85 681.943C1277.1 666.541 1306.02 659.317 1344.54 660.271V683.388C1309.87 680.499 1283.61 690.149 1265.78 712.284C1247.95 734.447 1239.04 763.833 1239.04 800.417C1239.04 837 1247.22 871.948 1263.6 908.067C1279.96 944.187 1303.1 974.31 1332.96 998.381C1362.81 1022.48 1397.49 1034.5 1436.99 1034.5H1588.7V21.6719H1483.23ZM1484.67 579.417H1464.44C1466.38 547.632 1459.86 525.224 1444.95 512.221C1430.01 499.218 1408.09 492.702 1379.19 492.702C1350.3 492.702 1299.72 501.371 1230.37 518.709C1222.65 520.644 1202.18 525.197 1168.95 532.448C1135.71 539.699 1107.04 543.298 1082.96 543.298C1042.51 543.298 1010.47 531.985 986.863 509.331C963.254 486.705 951.45 457.101 951.45 420.463C952.404 389.659 962.764 359.563 982.529 330.149C1002.27 300.763 1029.23 276.937 1063.44 258.618C1097.63 240.327 1134.98 231.167 1175.44 231.167C1226.5 231.167 1276.09 243.216 1324.26 267.287C1372.43 291.385 1411.69 326.306 1442.03 372.048C1472.38 417.818 1487.56 471.031 1487.56 531.712C1487.56 552.92 1486.58 568.813 1484.67 579.39V579.417Z" fill="white"/>
</g>
<defs>
<clipPath id="clip0_6_17">
<rect width="2516" height="1036" fill="white"/>
</clipPath>
</defs>
</svg>
